<mxfile host="Electron" agent="Mozilla/5.0 (Macintosh; Intel Mac OS X 10_15_7) AppleWebKit/537.36 (KHTML, like Gecko) draw.io/24.7.17 Chrome/128.0.6613.36 Electron/32.0.1 Safari/537.36" version="24.7.17">
  <diagram name="Page-1" id="8VIaj-qIUPEtADnvk4B7">
    <mxGraphModel dx="955" dy="662" grid="0" gridSize="10" guides="1" tooltips="1" connect="1" arrows="1" fold="1" page="1" pageScale="1" pageWidth="1100" pageHeight="850" math="0" shadow="0">
      <root>
        <mxCell id="0" />
        <mxCell id="1" parent="0" />
        <mxCell id="T5AI8Bu8nq1MoCgxuFMJ-114" value="" style="rounded=0;whiteSpace=wrap;html=1;dashed=1;dashPattern=12 12;" vertex="1" parent="1">
          <mxGeometry x="559.5" y="2" width="193.5" height="110" as="geometry" />
        </mxCell>
        <mxCell id="T5AI8Bu8nq1MoCgxuFMJ-83" style="edgeStyle=orthogonalEdgeStyle;rounded=0;orthogonalLoop=1;jettySize=auto;html=1;strokeWidth=3;" edge="1" parent="1">
          <mxGeometry relative="1" as="geometry">
            <mxPoint x="586.1428571428571" y="174" as="targetPoint" />
            <mxPoint x="540.9999999999998" y="174" as="sourcePoint" />
          </mxGeometry>
        </mxCell>
        <mxCell id="T5AI8Bu8nq1MoCgxuFMJ-8" value="&lt;font style=&quot;font-size: 18px;&quot;&gt;Phase Linking&lt;/font&gt;&lt;div&gt;&lt;font style=&quot;font-size: 18px;&quot;&gt;&lt;br&gt;&lt;/font&gt;&lt;/div&gt;&lt;div&gt;&lt;font style=&quot;font-size: 18px;&quot;&gt;&lt;br&gt;&lt;/font&gt;&lt;/div&gt;&lt;div&gt;&lt;font style=&quot;font-size: 18px;&quot;&gt;&lt;br&gt;&lt;/font&gt;&lt;/div&gt;&lt;div&gt;&lt;font style=&quot;font-size: 18px;&quot;&gt;&lt;br&gt;&lt;/font&gt;&lt;/div&gt;" style="rounded=1;whiteSpace=wrap;html=1;" vertex="1" parent="1">
          <mxGeometry x="261" y="156" width="280" height="117" as="geometry" />
        </mxCell>
        <mxCell id="T5AI8Bu8nq1MoCgxuFMJ-10" value="&lt;font style=&quot;font-size: 16px;&quot;&gt;SHP Selection&lt;/font&gt;&lt;div&gt;&lt;font style=&quot;font-size: 16px;&quot;&gt;(optional)&lt;/font&gt;&lt;/div&gt;" style="rounded=1;whiteSpace=wrap;html=1;fillColor=#f5f5f5;fontColor=#333333;strokeColor=#666666;" vertex="1" parent="1">
          <mxGeometry x="270" y="188" width="120" height="70" as="geometry" />
        </mxCell>
        <mxCell id="T5AI8Bu8nq1MoCgxuFMJ-11" value="&lt;font style=&quot;font-size: 16px;&quot;&gt;Coherence matrix optimization&lt;/font&gt;" style="rounded=1;whiteSpace=wrap;html=1;" vertex="1" parent="1">
          <mxGeometry x="410" y="188" width="115" height="70" as="geometry" />
        </mxCell>
        <mxCell id="T5AI8Bu8nq1MoCgxuFMJ-85" style="edgeStyle=orthogonalEdgeStyle;rounded=0;orthogonalLoop=1;jettySize=auto;html=1;strokeWidth=3;" edge="1" parent="1">
          <mxGeometry relative="1" as="geometry">
            <mxPoint x="504.51724137931046" y="355.5" as="targetPoint" />
            <mxPoint x="566" y="355.51724137931046" as="sourcePoint" />
          </mxGeometry>
        </mxCell>
        <mxCell id="T5AI8Bu8nq1MoCgxuFMJ-86" style="edgeStyle=orthogonalEdgeStyle;rounded=0;orthogonalLoop=1;jettySize=auto;html=1;exitX=0;exitY=0.5;exitDx=0;exitDy=0;strokeWidth=3;" edge="1" parent="1">
          <mxGeometry relative="1" as="geometry">
            <mxPoint x="236.48275862068976" y="370.2068965517242" as="targetPoint" />
            <mxPoint x="299" y="370.5" as="sourcePoint" />
          </mxGeometry>
        </mxCell>
        <mxCell id="T5AI8Bu8nq1MoCgxuFMJ-17" value="&lt;font style=&quot;font-size: 18px;&quot;&gt;Timeseries Processing&lt;/font&gt;" style="rounded=1;whiteSpace=wrap;html=1;labelBorderColor=none;" vertex="1" parent="1">
          <mxGeometry x="299" y="297" width="211" height="135" as="geometry" />
        </mxCell>
        <mxCell id="T5AI8Bu8nq1MoCgxuFMJ-52" value="-" style="group" vertex="1" connectable="0" parent="1">
          <mxGeometry x="587" y="117" width="180" height="120" as="geometry" />
        </mxCell>
        <mxCell id="T5AI8Bu8nq1MoCgxuFMJ-84" style="edgeStyle=orthogonalEdgeStyle;rounded=0;orthogonalLoop=1;jettySize=auto;html=1;strokeWidth=3;" edge="1" parent="T5AI8Bu8nq1MoCgxuFMJ-52" source="T5AI8Bu8nq1MoCgxuFMJ-53">
          <mxGeometry relative="1" as="geometry">
            <mxPoint x="90" y="163.8965517241379" as="targetPoint" />
          </mxGeometry>
        </mxCell>
        <mxCell id="T5AI8Bu8nq1MoCgxuFMJ-53" value="&lt;div style=&quot;font-size: 16px;&quot;&gt;Interferograms&lt;/div&gt;&lt;div style=&quot;font-size: 16px;&quot;&gt;&lt;br&gt;&lt;/div&gt;&lt;div&gt;&lt;br&gt;&lt;/div&gt;" style="html=1;whiteSpace=wrap;shape=isoCube2;backgroundOutline=1;isoAngle=15;" vertex="1" parent="T5AI8Bu8nq1MoCgxuFMJ-52">
          <mxGeometry width="180" height="120" as="geometry" />
        </mxCell>
        <mxCell id="T5AI8Bu8nq1MoCgxuFMJ-54" value="" style="endArrow=none;html=1;rounded=0;exitX=0;exitY=0;exitDx=0;exitDy=43.21417663442088;exitPerimeter=0;" edge="1" parent="T5AI8Bu8nq1MoCgxuFMJ-52">
          <mxGeometry width="50" height="50" relative="1" as="geometry">
            <mxPoint y="49.21417663442094" as="sourcePoint" />
            <mxPoint x="90" y="93" as="targetPoint" />
          </mxGeometry>
        </mxCell>
        <mxCell id="T5AI8Bu8nq1MoCgxuFMJ-55" value="" style="endArrow=none;html=1;rounded=0;exitX=0;exitY=0;exitDx=0;exitDy=43.21417663442088;exitPerimeter=0;" edge="1" parent="T5AI8Bu8nq1MoCgxuFMJ-52">
          <mxGeometry width="50" height="50" relative="1" as="geometry">
            <mxPoint y="58.21417663442094" as="sourcePoint" />
            <mxPoint x="90" y="102" as="targetPoint" />
          </mxGeometry>
        </mxCell>
        <mxCell id="T5AI8Bu8nq1MoCgxuFMJ-56" value="" style="endArrow=none;html=1;rounded=0;exitX=0;exitY=0;exitDx=0;exitDy=43.21417663442088;exitPerimeter=0;" edge="1" parent="T5AI8Bu8nq1MoCgxuFMJ-52">
          <mxGeometry width="50" height="50" relative="1" as="geometry">
            <mxPoint y="67.21417663442094" as="sourcePoint" />
            <mxPoint x="90" y="111" as="targetPoint" />
          </mxGeometry>
        </mxCell>
        <mxCell id="T5AI8Bu8nq1MoCgxuFMJ-57" value="" style="endArrow=none;html=1;rounded=0;" edge="1" parent="T5AI8Bu8nq1MoCgxuFMJ-52">
          <mxGeometry width="50" height="50" relative="1" as="geometry">
            <mxPoint x="180" y="69" as="sourcePoint" />
            <mxPoint x="90" y="110.79000000000002" as="targetPoint" />
          </mxGeometry>
        </mxCell>
        <mxCell id="T5AI8Bu8nq1MoCgxuFMJ-58" value="" style="endArrow=none;html=1;rounded=0;" edge="1" parent="T5AI8Bu8nq1MoCgxuFMJ-52">
          <mxGeometry width="50" height="50" relative="1" as="geometry">
            <mxPoint x="180" y="60" as="sourcePoint" />
            <mxPoint x="90" y="101.79000000000002" as="targetPoint" />
          </mxGeometry>
        </mxCell>
        <mxCell id="T5AI8Bu8nq1MoCgxuFMJ-59" value="" style="endArrow=none;html=1;rounded=0;" edge="1" parent="T5AI8Bu8nq1MoCgxuFMJ-52">
          <mxGeometry width="50" height="50" relative="1" as="geometry">
            <mxPoint x="179" y="51" as="sourcePoint" />
            <mxPoint x="90" y="92.79000000000002" as="targetPoint" />
          </mxGeometry>
        </mxCell>
        <mxCell id="T5AI8Bu8nq1MoCgxuFMJ-117" value="" style="group" vertex="1" connectable="0" parent="T5AI8Bu8nq1MoCgxuFMJ-52">
          <mxGeometry width="180" height="120" as="geometry" />
        </mxCell>
        <mxCell id="T5AI8Bu8nq1MoCgxuFMJ-118" value="&lt;div style=&quot;font-size: 16px;&quot;&gt;Interferograms&lt;/div&gt;&lt;div style=&quot;font-size: 16px;&quot;&gt;&lt;br&gt;&lt;/div&gt;&lt;div&gt;&lt;br&gt;&lt;/div&gt;" style="html=1;whiteSpace=wrap;shape=isoCube2;backgroundOutline=1;isoAngle=15;" vertex="1" parent="T5AI8Bu8nq1MoCgxuFMJ-117">
          <mxGeometry width="180" height="120" as="geometry" />
        </mxCell>
        <mxCell id="T5AI8Bu8nq1MoCgxuFMJ-119" value="" style="endArrow=none;html=1;rounded=0;exitX=0;exitY=0;exitDx=0;exitDy=43.21417663442088;exitPerimeter=0;" edge="1" parent="T5AI8Bu8nq1MoCgxuFMJ-117">
          <mxGeometry width="50" height="50" relative="1" as="geometry">
            <mxPoint y="50.21417663442094" as="sourcePoint" />
            <mxPoint x="90" y="94" as="targetPoint" />
          </mxGeometry>
        </mxCell>
        <mxCell id="T5AI8Bu8nq1MoCgxuFMJ-120" value="" style="endArrow=none;html=1;rounded=0;exitX=0;exitY=0;exitDx=0;exitDy=43.21417663442088;exitPerimeter=0;" edge="1" parent="T5AI8Bu8nq1MoCgxuFMJ-117">
          <mxGeometry width="50" height="50" relative="1" as="geometry">
            <mxPoint y="58.21417663442094" as="sourcePoint" />
            <mxPoint x="90" y="102" as="targetPoint" />
          </mxGeometry>
        </mxCell>
        <mxCell id="T5AI8Bu8nq1MoCgxuFMJ-121" value="" style="endArrow=none;html=1;rounded=0;exitX=0;exitY=0;exitDx=0;exitDy=43.21417663442088;exitPerimeter=0;" edge="1" parent="T5AI8Bu8nq1MoCgxuFMJ-117">
          <mxGeometry width="50" height="50" relative="1" as="geometry">
            <mxPoint y="67.21417663442094" as="sourcePoint" />
            <mxPoint x="90" y="111" as="targetPoint" />
          </mxGeometry>
        </mxCell>
        <mxCell id="T5AI8Bu8nq1MoCgxuFMJ-122" value="" style="endArrow=none;html=1;rounded=0;" edge="1" parent="T5AI8Bu8nq1MoCgxuFMJ-117">
          <mxGeometry width="50" height="50" relative="1" as="geometry">
            <mxPoint x="180" y="69" as="sourcePoint" />
            <mxPoint x="90" y="110.79000000000002" as="targetPoint" />
          </mxGeometry>
        </mxCell>
        <mxCell id="T5AI8Bu8nq1MoCgxuFMJ-123" value="" style="endArrow=none;html=1;rounded=0;" edge="1" parent="T5AI8Bu8nq1MoCgxuFMJ-117">
          <mxGeometry width="50" height="50" relative="1" as="geometry">
            <mxPoint x="180" y="60" as="sourcePoint" />
            <mxPoint x="90" y="101.79000000000002" as="targetPoint" />
          </mxGeometry>
        </mxCell>
        <mxCell id="T5AI8Bu8nq1MoCgxuFMJ-124" value="" style="endArrow=none;html=1;rounded=0;exitX=0.999;exitY=0.43;exitDx=0;exitDy=0;exitPerimeter=0;" edge="1" parent="T5AI8Bu8nq1MoCgxuFMJ-117" source="T5AI8Bu8nq1MoCgxuFMJ-118">
          <mxGeometry width="50" height="50" relative="1" as="geometry">
            <mxPoint x="179" y="52" as="sourcePoint" />
            <mxPoint x="90" y="93.79000000000002" as="targetPoint" />
          </mxGeometry>
        </mxCell>
        <mxCell id="T5AI8Bu8nq1MoCgxuFMJ-70" value="-" style="group" vertex="1" connectable="0" parent="1">
          <mxGeometry x="569" y="9" width="55.5" height="37" as="geometry" />
        </mxCell>
        <mxCell id="T5AI8Bu8nq1MoCgxuFMJ-71" value="" style="html=1;whiteSpace=wrap;shape=isoCube2;backgroundOutline=1;isoAngle=15;" vertex="1" parent="T5AI8Bu8nq1MoCgxuFMJ-70">
          <mxGeometry width="55.5" height="37" as="geometry" />
        </mxCell>
        <mxCell id="T5AI8Bu8nq1MoCgxuFMJ-72" value="" style="endArrow=none;html=1;rounded=0;exitX=0;exitY=0;exitDx=0;exitDy=43.21417663442088;exitPerimeter=0;" edge="1" parent="T5AI8Bu8nq1MoCgxuFMJ-70">
          <mxGeometry width="50" height="50" relative="1" as="geometry">
            <mxPoint y="15.174371128946454" as="sourcePoint" />
            <mxPoint x="27.75" y="28.674999999999997" as="targetPoint" />
          </mxGeometry>
        </mxCell>
        <mxCell id="T5AI8Bu8nq1MoCgxuFMJ-73" value="" style="endArrow=none;html=1;rounded=0;exitX=0;exitY=0;exitDx=0;exitDy=43.21417663442088;exitPerimeter=0;" edge="1" parent="T5AI8Bu8nq1MoCgxuFMJ-70">
          <mxGeometry width="50" height="50" relative="1" as="geometry">
            <mxPoint y="17.949371128946453" as="sourcePoint" />
            <mxPoint x="27.75" y="31.450000000000003" as="targetPoint" />
          </mxGeometry>
        </mxCell>
        <mxCell id="T5AI8Bu8nq1MoCgxuFMJ-74" value="" style="endArrow=none;html=1;rounded=0;exitX=0;exitY=0;exitDx=0;exitDy=43.21417663442088;exitPerimeter=0;" edge="1" parent="T5AI8Bu8nq1MoCgxuFMJ-70">
          <mxGeometry width="50" height="50" relative="1" as="geometry">
            <mxPoint y="20.724371128946455" as="sourcePoint" />
            <mxPoint x="27.75" y="34.224999999999994" as="targetPoint" />
          </mxGeometry>
        </mxCell>
        <mxCell id="T5AI8Bu8nq1MoCgxuFMJ-75" value="" style="endArrow=none;html=1;rounded=0;" edge="1" parent="T5AI8Bu8nq1MoCgxuFMJ-70">
          <mxGeometry width="50" height="50" relative="1" as="geometry">
            <mxPoint x="55.5" y="21.275" as="sourcePoint" />
            <mxPoint x="27.75" y="34.16025000000001" as="targetPoint" />
          </mxGeometry>
        </mxCell>
        <mxCell id="T5AI8Bu8nq1MoCgxuFMJ-76" value="" style="endArrow=none;html=1;rounded=0;" edge="1" parent="T5AI8Bu8nq1MoCgxuFMJ-70">
          <mxGeometry width="50" height="50" relative="1" as="geometry">
            <mxPoint x="55.5" y="18.5" as="sourcePoint" />
            <mxPoint x="27.75" y="31.385250000000006" as="targetPoint" />
          </mxGeometry>
        </mxCell>
        <mxCell id="T5AI8Bu8nq1MoCgxuFMJ-77" value="" style="endArrow=none;html=1;rounded=0;" edge="1" parent="T5AI8Bu8nq1MoCgxuFMJ-70">
          <mxGeometry width="50" height="50" relative="1" as="geometry">
            <mxPoint x="55.19166666666666" y="15.725000000000001" as="sourcePoint" />
            <mxPoint x="27.75" y="28.61025000000001" as="targetPoint" />
          </mxGeometry>
        </mxCell>
        <mxCell id="T5AI8Bu8nq1MoCgxuFMJ-78" value="" style="rounded=1;whiteSpace=wrap;html=1;" vertex="1" parent="1">
          <mxGeometry x="574.75" y="69" width="34.25" height="18" as="geometry" />
        </mxCell>
        <mxCell id="T5AI8Bu8nq1MoCgxuFMJ-79" value="Dataset" style="text;html=1;align=center;verticalAlign=middle;resizable=0;points=[];autosize=1;strokeColor=none;fillColor=none;" vertex="1" parent="1">
          <mxGeometry x="638" y="13" width="59" height="26" as="geometry" />
        </mxCell>
        <mxCell id="T5AI8Bu8nq1MoCgxuFMJ-80" value="Processing (sub)module" style="text;html=1;align=center;verticalAlign=middle;resizable=0;points=[];autosize=1;strokeColor=none;fillColor=none;" vertex="1" parent="1">
          <mxGeometry x="610.5" y="68" width="147" height="26" as="geometry" />
        </mxCell>
        <mxCell id="T5AI8Bu8nq1MoCgxuFMJ-82" style="edgeStyle=orthogonalEdgeStyle;rounded=0;orthogonalLoop=1;jettySize=auto;html=1;exitX=1;exitY=0.5;exitDx=0;exitDy=0;exitPerimeter=0;strokeWidth=3;" edge="1" parent="1" source="T5AI8Bu8nq1MoCgxuFMJ-35">
          <mxGeometry relative="1" as="geometry">
            <mxPoint x="260" y="157" as="targetPoint" />
          </mxGeometry>
        </mxCell>
        <mxCell id="T5AI8Bu8nq1MoCgxuFMJ-87" value="&lt;div style=&quot;forced-color-adjust: none;&quot;&gt;&lt;div style=&quot;forced-color-adjust: none;&quot;&gt;&lt;br style=&quot;forced-color-adjust: none; color: rgb(51, 51, 51); font-family: Helvetica; font-size: 12px; font-style: normal; font-variant-ligatures: normal; font-variant-caps: normal; font-weight: 400; letter-spacing: normal; orphans: 2; text-align: center; text-indent: 0px; text-transform: none; widows: 2; word-spacing: 0px; -webkit-text-stroke-width: 0px; white-space: normal; background-color: rgb(251, 251, 251); text-decoration-thickness: initial; text-decoration-style: initial; text-decoration-color: initial;&quot;&gt;&lt;/div&gt;&lt;/div&gt;" style="text;whiteSpace=wrap;html=1;" vertex="1" parent="1">
          <mxGeometry x="460.47058823529414" y="510.6470588235295" width="156" height="75" as="geometry" />
        </mxCell>
        <mxCell id="T5AI8Bu8nq1MoCgxuFMJ-88" value="&lt;font style=&quot;font-size: 16px;&quot;&gt;Network Inversion&lt;/font&gt;&lt;div&gt;&lt;font style=&quot;font-size: 16px;&quot;&gt;(if necessary)&lt;/font&gt;&lt;/div&gt;" style="rounded=1;whiteSpace=wrap;html=1;fillColor=#f5f5f5;fontColor=#333333;strokeColor=#666666;" vertex="1" parent="1">
          <mxGeometry x="334" y="300" width="141" height="51" as="geometry" />
        </mxCell>
        <mxCell id="T5AI8Bu8nq1MoCgxuFMJ-90" value="" style="group" vertex="1" connectable="0" parent="1">
          <mxGeometry x="568" y="284" width="250" height="149" as="geometry" />
        </mxCell>
        <mxCell id="T5AI8Bu8nq1MoCgxuFMJ-16" value="&lt;font style=&quot;font-size: 18px;&quot;&gt;&amp;nbsp; Unwrapping&lt;/font&gt;" style="rounded=1;whiteSpace=wrap;html=1;align=left;" vertex="1" parent="T5AI8Bu8nq1MoCgxuFMJ-90">
          <mxGeometry width="250" height="149" as="geometry" />
        </mxCell>
        <mxCell id="T5AI8Bu8nq1MoCgxuFMJ-34" value="&lt;font style=&quot;font-size: 16px;&quot;&gt;Pre-processing&lt;/font&gt;" style="rounded=1;whiteSpace=wrap;html=1;fillColor=#f5f5f5;fontColor=#333333;strokeColor=#666666;" vertex="1" parent="T5AI8Bu8nq1MoCgxuFMJ-90">
          <mxGeometry x="94" y="10" width="148" height="27" as="geometry" />
        </mxCell>
        <mxCell id="T5AI8Bu8nq1MoCgxuFMJ-68" value="&lt;font style=&quot;font-size: 16px;&quot;&gt;Post-processing&lt;/font&gt;" style="rounded=1;whiteSpace=wrap;html=1;fillColor=#f5f5f5;fontColor=#333333;strokeColor=#666666;" vertex="1" parent="T5AI8Bu8nq1MoCgxuFMJ-90">
          <mxGeometry x="96.5" y="108" width="143" height="28" as="geometry" />
        </mxCell>
        <mxCell id="T5AI8Bu8nq1MoCgxuFMJ-69" value="&lt;font style=&quot;font-size: 16px;&quot;&gt;2D / 3D unwrapping&lt;/font&gt;" style="rounded=1;whiteSpace=wrap;html=1;" vertex="1" parent="T5AI8Bu8nq1MoCgxuFMJ-90">
          <mxGeometry x="118" y="48" width="100" height="53" as="geometry" />
        </mxCell>
        <mxCell id="T5AI8Bu8nq1MoCgxuFMJ-91" value="&lt;div&gt;&lt;font style=&quot;font-size: 16px;&quot;&gt;Estimate average velocity&lt;/font&gt;&lt;/div&gt;" style="rounded=1;whiteSpace=wrap;html=1;" vertex="1" parent="1">
          <mxGeometry x="336" y="384" width="137" height="37" as="geometry" />
        </mxCell>
        <mxCell id="T5AI8Bu8nq1MoCgxuFMJ-93" value="-" style="group" vertex="1" connectable="0" parent="1">
          <mxGeometry x="63" y="357" width="164" height="86" as="geometry" />
        </mxCell>
        <mxCell id="T5AI8Bu8nq1MoCgxuFMJ-94" value="&lt;div style=&quot;font-size: 16px;&quot;&gt;Average Velocity&lt;/div&gt;&lt;div style=&quot;font-size: 16px;&quot;&gt;&lt;br&gt;&lt;/div&gt;" style="html=1;whiteSpace=wrap;shape=isoCube2;backgroundOutline=1;isoAngle=15;" vertex="1" parent="T5AI8Bu8nq1MoCgxuFMJ-93">
          <mxGeometry width="163.09" height="86" as="geometry" />
        </mxCell>
        <mxCell id="T5AI8Bu8nq1MoCgxuFMJ-104" value="-" style="group" vertex="1" connectable="0" parent="1">
          <mxGeometry x="50" y="253" width="180" height="120" as="geometry" />
        </mxCell>
        <mxCell id="T5AI8Bu8nq1MoCgxuFMJ-105" value="&lt;div style=&quot;font-size: 16px;&quot;&gt;Displacement Timeseries&lt;/div&gt;&lt;div&gt;&lt;br&gt;&lt;/div&gt;&lt;div&gt;&lt;br&gt;&lt;/div&gt;" style="html=1;whiteSpace=wrap;shape=isoCube2;backgroundOutline=1;isoAngle=15;" vertex="1" parent="T5AI8Bu8nq1MoCgxuFMJ-104">
          <mxGeometry width="180" height="120" as="geometry" />
        </mxCell>
        <mxCell id="T5AI8Bu8nq1MoCgxuFMJ-106" value="" style="endArrow=none;html=1;rounded=0;exitX=0;exitY=0;exitDx=0;exitDy=43.21417663442088;exitPerimeter=0;" edge="1" parent="T5AI8Bu8nq1MoCgxuFMJ-104">
          <mxGeometry width="50" height="50" relative="1" as="geometry">
            <mxPoint y="49.21417663442094" as="sourcePoint" />
            <mxPoint x="90" y="93" as="targetPoint" />
          </mxGeometry>
        </mxCell>
        <mxCell id="T5AI8Bu8nq1MoCgxuFMJ-107" value="" style="endArrow=none;html=1;rounded=0;exitX=0;exitY=0;exitDx=0;exitDy=43.21417663442088;exitPerimeter=0;" edge="1" parent="T5AI8Bu8nq1MoCgxuFMJ-104">
          <mxGeometry width="50" height="50" relative="1" as="geometry">
            <mxPoint y="58.21417663442094" as="sourcePoint" />
            <mxPoint x="90" y="102" as="targetPoint" />
          </mxGeometry>
        </mxCell>
        <mxCell id="T5AI8Bu8nq1MoCgxuFMJ-108" value="" style="endArrow=none;html=1;rounded=0;exitX=0;exitY=0;exitDx=0;exitDy=43.21417663442088;exitPerimeter=0;" edge="1" parent="T5AI8Bu8nq1MoCgxuFMJ-104">
          <mxGeometry width="50" height="50" relative="1" as="geometry">
            <mxPoint y="67.21417663442094" as="sourcePoint" />
            <mxPoint x="90" y="111" as="targetPoint" />
          </mxGeometry>
        </mxCell>
        <mxCell id="T5AI8Bu8nq1MoCgxuFMJ-109" value="" style="endArrow=none;html=1;rounded=0;" edge="1" parent="T5AI8Bu8nq1MoCgxuFMJ-104">
          <mxGeometry width="50" height="50" relative="1" as="geometry">
            <mxPoint x="180" y="69" as="sourcePoint" />
            <mxPoint x="90" y="110.79000000000002" as="targetPoint" />
          </mxGeometry>
        </mxCell>
        <mxCell id="T5AI8Bu8nq1MoCgxuFMJ-110" value="" style="endArrow=none;html=1;rounded=0;" edge="1" parent="T5AI8Bu8nq1MoCgxuFMJ-104">
          <mxGeometry width="50" height="50" relative="1" as="geometry">
            <mxPoint x="180" y="60" as="sourcePoint" />
            <mxPoint x="90" y="101.79000000000002" as="targetPoint" />
          </mxGeometry>
        </mxCell>
        <mxCell id="T5AI8Bu8nq1MoCgxuFMJ-111" value="" style="endArrow=none;html=1;rounded=0;" edge="1" parent="T5AI8Bu8nq1MoCgxuFMJ-104">
          <mxGeometry width="50" height="50" relative="1" as="geometry">
            <mxPoint x="179" y="51" as="sourcePoint" />
            <mxPoint x="90" y="92.79000000000002" as="targetPoint" />
          </mxGeometry>
        </mxCell>
        <mxCell id="T5AI8Bu8nq1MoCgxuFMJ-125" value="" style="group" vertex="1" connectable="0" parent="T5AI8Bu8nq1MoCgxuFMJ-104">
          <mxGeometry width="180" height="120" as="geometry" />
        </mxCell>
        <mxCell id="T5AI8Bu8nq1MoCgxuFMJ-126" value="&lt;div style=&quot;font-size: 16px;&quot;&gt;Displacement Timeseries&lt;/div&gt;&lt;div style=&quot;font-size: 16px;&quot;&gt;&lt;br&gt;&lt;/div&gt;&lt;div style=&quot;font-size: 16px;&quot;&gt;&lt;br&gt;&lt;/div&gt;" style="html=1;whiteSpace=wrap;shape=isoCube2;backgroundOutline=1;isoAngle=15;" vertex="1" parent="T5AI8Bu8nq1MoCgxuFMJ-125">
          <mxGeometry width="180" height="120" as="geometry" />
        </mxCell>
        <mxCell id="T5AI8Bu8nq1MoCgxuFMJ-127" value="" style="endArrow=none;html=1;rounded=0;exitX=0;exitY=0;exitDx=0;exitDy=43.21417663442088;exitPerimeter=0;" edge="1" parent="T5AI8Bu8nq1MoCgxuFMJ-125">
          <mxGeometry width="50" height="50" relative="1" as="geometry">
            <mxPoint y="50.21417663442094" as="sourcePoint" />
            <mxPoint x="90" y="94" as="targetPoint" />
          </mxGeometry>
        </mxCell>
        <mxCell id="T5AI8Bu8nq1MoCgxuFMJ-128" value="" style="endArrow=none;html=1;rounded=0;exitX=0;exitY=0;exitDx=0;exitDy=43.21417663442088;exitPerimeter=0;" edge="1" parent="T5AI8Bu8nq1MoCgxuFMJ-125">
          <mxGeometry width="50" height="50" relative="1" as="geometry">
            <mxPoint y="58.21417663442094" as="sourcePoint" />
            <mxPoint x="90" y="102" as="targetPoint" />
          </mxGeometry>
        </mxCell>
        <mxCell id="T5AI8Bu8nq1MoCgxuFMJ-129" value="" style="endArrow=none;html=1;rounded=0;exitX=0;exitY=0;exitDx=0;exitDy=43.21417663442088;exitPerimeter=0;" edge="1" parent="T5AI8Bu8nq1MoCgxuFMJ-125">
          <mxGeometry width="50" height="50" relative="1" as="geometry">
            <mxPoint y="67.21417663442094" as="sourcePoint" />
            <mxPoint x="90" y="111" as="targetPoint" />
          </mxGeometry>
        </mxCell>
        <mxCell id="T5AI8Bu8nq1MoCgxuFMJ-130" value="" style="endArrow=none;html=1;rounded=0;" edge="1" parent="T5AI8Bu8nq1MoCgxuFMJ-125">
          <mxGeometry width="50" height="50" relative="1" as="geometry">
            <mxPoint x="180" y="69" as="sourcePoint" />
            <mxPoint x="90" y="110.79000000000002" as="targetPoint" />
          </mxGeometry>
        </mxCell>
        <mxCell id="T5AI8Bu8nq1MoCgxuFMJ-131" value="" style="endArrow=none;html=1;rounded=0;" edge="1" parent="T5AI8Bu8nq1MoCgxuFMJ-125">
          <mxGeometry width="50" height="50" relative="1" as="geometry">
            <mxPoint x="180" y="60" as="sourcePoint" />
            <mxPoint x="90" y="101.79000000000002" as="targetPoint" />
          </mxGeometry>
        </mxCell>
        <mxCell id="T5AI8Bu8nq1MoCgxuFMJ-132" value="" style="endArrow=none;html=1;rounded=0;exitX=0.999;exitY=0.43;exitDx=0;exitDy=0;exitPerimeter=0;" edge="1" parent="T5AI8Bu8nq1MoCgxuFMJ-125" source="T5AI8Bu8nq1MoCgxuFMJ-126">
          <mxGeometry width="50" height="50" relative="1" as="geometry">
            <mxPoint x="179" y="52" as="sourcePoint" />
            <mxPoint x="90" y="93.79000000000002" as="targetPoint" />
          </mxGeometry>
        </mxCell>
        <mxCell id="T5AI8Bu8nq1MoCgxuFMJ-113" value="Data flow" style="text;html=1;align=center;verticalAlign=middle;resizable=0;points=[];autosize=1;strokeColor=none;fillColor=none;" vertex="1" parent="1">
          <mxGeometry x="629" y="43.99999999999999" width="68" height="26" as="geometry" />
        </mxCell>
        <mxCell id="T5AI8Bu8nq1MoCgxuFMJ-115" value="" style="endArrow=classic;html=1;rounded=0;strokeWidth=3;" edge="1" parent="1">
          <mxGeometry width="50" height="50" relative="1" as="geometry">
            <mxPoint x="577.25" y="58.43" as="sourcePoint" />
            <mxPoint x="606.25" y="58.43" as="targetPoint" />
          </mxGeometry>
        </mxCell>
        <mxCell id="T5AI8Bu8nq1MoCgxuFMJ-116" value="" style="group" vertex="1" connectable="0" parent="1">
          <mxGeometry x="40" y="97" width="180" height="120" as="geometry" />
        </mxCell>
        <mxCell id="T5AI8Bu8nq1MoCgxuFMJ-35" value="&lt;font style=&quot;font-size: 16px;&quot;&gt;Coregistered SLCs&lt;/font&gt;&lt;div style=&quot;font-size: 16px;&quot;&gt;&lt;br&gt;&lt;/div&gt;&lt;div&gt;&lt;br&gt;&lt;/div&gt;" style="html=1;whiteSpace=wrap;shape=isoCube2;backgroundOutline=1;isoAngle=15;" vertex="1" parent="T5AI8Bu8nq1MoCgxuFMJ-116">
          <mxGeometry width="180" height="120" as="geometry" />
        </mxCell>
        <mxCell id="T5AI8Bu8nq1MoCgxuFMJ-41" value="" style="endArrow=none;html=1;rounded=0;exitX=0;exitY=0;exitDx=0;exitDy=43.21417663442088;exitPerimeter=0;" edge="1" parent="T5AI8Bu8nq1MoCgxuFMJ-116">
          <mxGeometry width="50" height="50" relative="1" as="geometry">
            <mxPoint y="50.21417663442094" as="sourcePoint" />
            <mxPoint x="90" y="94" as="targetPoint" />
          </mxGeometry>
        </mxCell>
        <mxCell id="T5AI8Bu8nq1MoCgxuFMJ-43" value="" style="endArrow=none;html=1;rounded=0;exitX=0;exitY=0;exitDx=0;exitDy=43.21417663442088;exitPerimeter=0;" edge="1" parent="T5AI8Bu8nq1MoCgxuFMJ-116">
          <mxGeometry width="50" height="50" relative="1" as="geometry">
            <mxPoint y="58.21417663442094" as="sourcePoint" />
            <mxPoint x="90" y="102" as="targetPoint" />
          </mxGeometry>
        </mxCell>
        <mxCell id="T5AI8Bu8nq1MoCgxuFMJ-44" value="" style="endArrow=none;html=1;rounded=0;exitX=0;exitY=0;exitDx=0;exitDy=43.21417663442088;exitPerimeter=0;" edge="1" parent="T5AI8Bu8nq1MoCgxuFMJ-116">
          <mxGeometry width="50" height="50" relative="1" as="geometry">
            <mxPoint y="67.21417663442094" as="sourcePoint" />
            <mxPoint x="90" y="111" as="targetPoint" />
          </mxGeometry>
        </mxCell>
        <mxCell id="T5AI8Bu8nq1MoCgxuFMJ-47" value="" style="endArrow=none;html=1;rounded=0;" edge="1" parent="T5AI8Bu8nq1MoCgxuFMJ-116">
          <mxGeometry width="50" height="50" relative="1" as="geometry">
            <mxPoint x="180" y="69" as="sourcePoint" />
            <mxPoint x="90" y="110.79000000000002" as="targetPoint" />
          </mxGeometry>
        </mxCell>
        <mxCell id="T5AI8Bu8nq1MoCgxuFMJ-49" value="" style="endArrow=none;html=1;rounded=0;" edge="1" parent="T5AI8Bu8nq1MoCgxuFMJ-116">
          <mxGeometry width="50" height="50" relative="1" as="geometry">
            <mxPoint x="180" y="60" as="sourcePoint" />
            <mxPoint x="90" y="101.79000000000002" as="targetPoint" />
          </mxGeometry>
        </mxCell>
        <mxCell id="T5AI8Bu8nq1MoCgxuFMJ-50" value="" style="endArrow=none;html=1;rounded=0;exitX=0.999;exitY=0.43;exitDx=0;exitDy=0;exitPerimeter=0;" edge="1" parent="T5AI8Bu8nq1MoCgxuFMJ-116" source="T5AI8Bu8nq1MoCgxuFMJ-35">
          <mxGeometry width="50" height="50" relative="1" as="geometry">
            <mxPoint x="179" y="52" as="sourcePoint" />
            <mxPoint x="90" y="93.79000000000002" as="targetPoint" />
          </mxGeometry>
        </mxCell>
        <mxCell id="T5AI8Bu8nq1MoCgxuFMJ-134" value="" style="rounded=1;whiteSpace=wrap;html=1;fillColor=#f5f5f5;fontColor=#333333;strokeColor=#666666;" vertex="1" parent="1">
          <mxGeometry x="574.62" y="89" width="34.25" height="18" as="geometry" />
        </mxCell>
        <mxCell id="T5AI8Bu8nq1MoCgxuFMJ-135" value="&lt;div&gt;Optional module&lt;/div&gt;" style="text;html=1;align=center;verticalAlign=middle;resizable=0;points=[];autosize=1;strokeColor=none;fillColor=none;" vertex="1" parent="1">
          <mxGeometry x="629" y="85.5" width="105" height="26" as="geometry" />
        </mxCell>
        <mxCell id="T5AI8Bu8nq1MoCgxuFMJ-140" style="edgeStyle=orthogonalEdgeStyle;rounded=0;orthogonalLoop=1;jettySize=auto;html=1;exitX=1;exitY=0.5;exitDx=0;exitDy=0;strokeWidth=2;endArrow=none;endFill=0;" edge="1" parent="1" source="T5AI8Bu8nq1MoCgxuFMJ-137">
          <mxGeometry relative="1" as="geometry">
            <mxPoint x="580" y="174" as="targetPoint" />
            <Array as="points">
              <mxPoint x="560" y="123" />
              <mxPoint x="560" y="174" />
            </Array>
          </mxGeometry>
        </mxCell>
        <mxCell id="T5AI8Bu8nq1MoCgxuFMJ-137" value="&lt;font style=&quot;font-size: 16px;&quot;&gt;PS Selection&lt;/font&gt;" style="rounded=1;whiteSpace=wrap;html=1;" vertex="1" parent="1">
          <mxGeometry x="263" y="94" width="275" height="57" as="geometry" />
        </mxCell>
      </root>
    </mxGraphModel>
  </diagram>
</mxfile>
